<svg xmlns="http://www.w3.org/2000/svg" xmlns:xlink="http://www.w3.org/1999/xlink" width="500" zoomAndPan="magnify" viewBox="0 0 375 374.999991" height="500" preserveAspectRatio="xMidYMid meet" version="1.0"><defs><clipPath id="4504acc3b4"><path d="M 157 117.265625 L 258 117.265625 L 258 123 L 157 123 Z M 157 117.265625 " clip-rule="nonzero"/></clipPath><clipPath id="8ec11e2737"><path d="M 37.5 117.265625 L 337.5 117.265625 L 337.5 307.5 L 37.5 307.5 Z M 37.5 117.265625 " clip-rule="nonzero"/></clipPath><clipPath id="1914b6d56e"><path d="M 144 35 L 266 35 L 266 118 L 144 118 Z M 144 35 " clip-rule="nonzero"/></clipPath><clipPath id="27c232c346"><path d="M 136.496094 66.195312 L 255.566406 27.34375 L 272.316406 78.679688 L 153.246094 117.53125 Z M 136.496094 66.195312 " clip-rule="nonzero"/></clipPath><clipPath id="3518b5f095"><path d="M 136.210938 66.289062 L 255.996094 27.203125 L 272.746094 78.539062 L 152.960938 117.625 Z M 136.210938 66.289062 " clip-rule="nonzero"/></clipPath><clipPath id="7e1be110e6"><path d="M 17.25 105.105469 L 330.257812 2.972656 L 411.917969 253.234375 L 98.90625 355.367188 Z M 17.25 105.105469 " clip-rule="nonzero"/></clipPath><clipPath id="03caa7dd65"><path d="M 136 29 L 273 29 L 273 118 L 136 118 Z M 136 29 " clip-rule="nonzero"/></clipPath><clipPath id="08594409e8"><path d="M 136.496094 66.195312 L 255.566406 27.34375 L 272.316406 78.679688 L 153.246094 117.53125 Z M 136.496094 66.195312 " clip-rule="nonzero"/></clipPath><clipPath id="d58980e922"><path d="M 136.210938 66.289062 L 255.996094 27.203125 L 272.746094 78.539062 L 152.960938 117.625 Z M 136.210938 66.289062 " clip-rule="nonzero"/></clipPath><clipPath id="943aafb98b"><path d="M 17.25 105.105469 L 330.257812 2.972656 L 411.917969 253.234375 L 98.90625 355.367188 Z M 17.25 105.105469 " clip-rule="nonzero"/></clipPath></defs><path fill="#efdcc7" d="M 322.5 182.5 L 302.5 182.5 L 302.5 142.5 L 322.5 142.5 C 328.023438 142.5 332.5 146.976562 332.5 152.5 L 332.5 172.5 C 332.5 178.023438 328.023438 182.5 322.5 182.5 " fill-opacity="1" fill-rule="nonzero"/><path fill="#ae6f55" d="M 87.5 247.5 L 57.5 247.5 C 51.976562 247.5 47.5 243.023438 47.5 237.5 C 47.5 231.976562 51.976562 227.5 57.5 227.5 L 87.5 227.5 L 87.5 247.5 " fill-opacity="1" fill-rule="nonzero"/><path fill="#efdcc7" d="M 292.5 172.5 L 122.5 172.5 L 122.5 122.5 L 292.5 122.5 L 292.5 172.5 " fill-opacity="1" fill-rule="nonzero"/><path fill="#c0775f" d="M 142.5 172.5 L 122.5 172.5 L 122.5 122.5 L 142.5 122.5 L 142.5 172.5 " fill-opacity="1" fill-rule="nonzero"/><path fill="#c0775f" d="M 292.5 172.5 L 272.5 172.5 L 272.5 122.5 L 292.5 122.5 L 292.5 172.5 " fill-opacity="1" fill-rule="nonzero"/><g clip-path="url(#4504acc3b4)"><path fill="#f9ac1d" d="M 257.5 122.5 L 157.5 122.5 L 157.5 72.5 L 257.5 72.5 L 257.5 122.5 " fill-opacity="1" fill-rule="nonzero"/></g><path fill="#f9ac1d" d="M 257.5 262.5 L 157.5 262.5 L 157.5 172.5 L 257.5 172.5 L 257.5 262.5 " fill-opacity="1" fill-rule="nonzero"/><path fill="#ae6f55" d="M 312.5 292.5 L 292.5 292.5 L 292.5 132.5 L 302.5 132.5 C 308.023438 132.5 312.5 136.976562 312.5 142.5 L 312.5 292.5 " fill-opacity="1" fill-rule="nonzero"/><path fill="#ae6f55" d="M 122.5 292.5 L 102.5 292.5 L 102.5 142.5 C 102.5 136.976562 106.976562 132.5 112.5 132.5 L 122.5 132.5 L 122.5 292.5 " fill-opacity="1" fill-rule="nonzero"/><path fill="#c0775f" d="M 332.5 302.5 L 82.5 302.5 L 82.5 292.5 C 82.5 286.976562 86.976562 282.5 92.5 282.5 L 322.5 282.5 C 328.023438 282.5 332.5 286.976562 332.5 292.5 L 332.5 302.5 " fill-opacity="1" fill-rule="nonzero"/><path fill="#e79e1e" d="M 197.5 262.5 L 177.5 262.5 L 177.5 172.5 L 197.5 172.5 L 197.5 262.5 " fill-opacity="1" fill-rule="nonzero"/><path fill="#e79e1e" d="M 237.5 262.5 L 217.5 262.5 L 217.5 172.5 L 237.5 172.5 L 237.5 262.5 " fill-opacity="1" fill-rule="nonzero"/><g clip-path="url(#8ec11e2737)"><path fill="#100f0d" d="M 327.5 172.5 C 327.5 175.257812 325.257812 177.5 322.5 177.5 L 317.5 177.5 L 317.5 147.5 L 322.5 147.5 C 325.257812 147.5 327.5 149.742188 327.5 152.5 Z M 297.5 277.5 L 297.5 137.5 L 302.5 137.5 C 305.257812 137.5 307.5 139.742188 307.5 142.5 L 307.5 277.5 Z M 327.5 292.5 L 327.5 297.5 L 87.5 297.5 L 87.5 292.5 C 87.5 289.742188 89.742188 287.5 92.5 287.5 L 322.5 287.5 C 325.257812 287.5 327.5 289.742188 327.5 292.5 Z M 107.5 142.5 C 107.5 139.742188 109.742188 137.5 112.5 137.5 L 117.5 137.5 L 117.5 277.5 L 107.5 277.5 Z M 127.5 127.5 L 137.5 127.5 L 137.5 167.5 L 127.5 167.5 Z M 152.5 177.5 L 152.5 262.5 C 152.5 265.261719 154.738281 267.5 157.5 267.5 L 257.5 267.5 C 260.261719 267.5 262.5 265.261719 262.5 262.5 L 262.5 177.5 L 287.5 177.5 L 287.5 277.5 L 127.5 277.5 L 127.5 177.5 Z M 162.5 77.5 L 252.5 77.5 L 252.5 117.5 L 162.5 117.5 Z M 242.5 177.5 L 252.5 177.5 L 252.5 257.5 L 242.5 257.5 Z M 222.5 177.5 L 232.5 177.5 L 232.5 257.5 L 222.5 257.5 Z M 202.5 177.5 L 212.5 177.5 L 212.5 257.5 L 202.5 257.5 Z M 182.5 177.5 L 192.5 177.5 L 192.5 257.5 L 182.5 257.5 Z M 162.5 177.5 L 172.5 177.5 L 172.5 257.5 L 162.5 257.5 Z M 267.5 167.5 L 147.5 167.5 L 147.5 127.5 L 267.5 127.5 Z M 277.5 127.5 L 287.5 127.5 L 287.5 167.5 L 277.5 167.5 Z M 77.5 242.5 L 52.5 242.5 C 49.742188 242.5 47.5 240.257812 47.5 237.5 C 47.5 234.742188 49.742188 232.5 52.5 232.5 L 77.5 232.5 Z M 322.5 137.5 L 316.640625 137.5 C 314.574219 131.679688 309.019531 127.5 302.5 127.5 L 297.5 127.5 L 297.5 122.5 C 297.5 119.738281 295.261719 117.5 292.5 117.5 L 262.5 117.5 L 262.5 72.5 C 262.5 69.738281 260.261719 67.5 257.5 67.5 L 157.5 67.5 C 154.738281 67.5 152.5 69.738281 152.5 72.5 L 152.5 117.5 L 122.5 117.5 C 119.738281 117.5 117.5 119.738281 117.5 122.5 L 117.5 127.5 L 112.5 127.5 C 105.980469 127.5 100.425781 131.679688 98.359375 137.5 L 92.5 137.5 C 84.226562 137.5 77.5 144.226562 77.5 152.5 L 77.5 222.5 L 52.5 222.5 C 44.230469 222.5 37.5 229.226562 37.5 237.5 C 37.5 245.769531 44.230469 252.5 52.5 252.5 L 82.5 252.5 C 85.261719 252.5 87.5 250.261719 87.5 247.5 L 87.5 152.5 C 87.5 149.742188 89.742188 147.5 92.5 147.5 L 97.5 147.5 L 97.5 277.5 L 92.5 277.5 C 84.226562 277.5 77.5 284.226562 77.5 292.5 L 77.5 302.5 C 77.5 305.261719 79.738281 307.5 82.5 307.5 L 332.5 307.5 C 335.261719 307.5 337.5 305.261719 337.5 302.5 L 337.5 292.5 C 337.5 284.226562 330.769531 277.5 322.5 277.5 L 317.5 277.5 L 317.5 187.5 L 322.5 187.5 C 330.769531 187.5 337.5 180.769531 337.5 172.5 L 337.5 152.5 C 337.5 144.226562 330.769531 137.5 322.5 137.5 " fill-opacity="1" fill-rule="nonzero"/></g><g clip-path="url(#1914b6d56e)"><g clip-path="url(#27c232c346)"><g clip-path="url(#3518b5f095)"><g clip-path="url(#7e1be110e6)"><path fill="#f9ac1d" d="M 265.503906 87.558594 L 161.164062 121.601562 L 144.152344 69.464844 L 248.488281 35.421875 L 265.503906 87.558594 " fill-opacity="1" fill-rule="nonzero"/></g></g></g></g><g clip-path="url(#03caa7dd65)"><g clip-path="url(#08594409e8)"><g clip-path="url(#d58980e922)"><g clip-path="url(#943aafb98b)"><path fill="#100f0d" d="M 355.550781 115.867188 C 356.488281 118.742188 354.910156 121.84375 352.035156 122.78125 L 346.816406 124.484375 L 336.609375 93.203125 L 341.828125 91.5 C 344.703125 90.5625 347.808594 92.136719 348.746094 95.011719 Z M 359.976562 235.570312 L 312.339844 89.582031 L 317.558594 87.878906 C 320.433594 86.941406 323.539062 88.519531 324.476562 91.390625 L 370.410156 232.164062 Z M 396.378906 241 L 398.082031 246.210938 L 147.671875 327.917969 L 145.972656 322.703125 C 145.035156 319.832031 146.613281 316.726562 149.488281 315.789062 L 389.460938 237.488281 C 392.335938 236.546875 395.441406 238.125 396.378906 241 Z M 115.804688 159.480469 C 114.863281 156.605469 116.441406 153.503906 119.316406 152.5625 L 124.535156 150.863281 L 172.167969 296.851562 L 161.734375 300.253906 Z M 131.566406 137.03125 L 142 133.625 L 155.609375 175.335938 L 145.175781 178.742188 Z M 174.664062 180.65625 L 203.582031 269.292969 C 204.523438 272.171875 207.621094 273.746094 210.5 272.804688 L 314.839844 238.761719 C 317.71875 237.820312 319.292969 234.722656 318.355469 231.84375 L 289.433594 143.207031 L 315.515625 134.699219 L 349.542969 238.976562 L 182.601562 293.445312 L 148.578125 189.167969 Z M 151.070312 72.976562 L 244.972656 42.335938 L 258.585938 84.046875 L 164.679688 114.6875 Z M 268.566406 150.019531 L 279 146.613281 L 306.21875 230.035156 L 295.785156 233.4375 Z M 247.699219 156.828125 L 258.132812 153.421875 L 285.351562 236.84375 L 274.917969 240.246094 Z M 226.832031 163.636719 L 237.265625 160.230469 L 264.484375 243.652344 L 254.050781 247.058594 Z M 205.964844 170.445312 L 216.398438 167.039062 L 243.617188 250.460938 L 233.183594 253.867188 Z M 185.097656 177.253906 L 195.53125 173.847656 L 222.75 257.269531 L 212.316406 260.675781 Z M 291.246094 131.078125 L 166.042969 171.933594 L 152.433594 130.222656 L 277.636719 89.367188 Z M 288.070312 85.964844 L 298.503906 82.558594 L 312.113281 124.269531 L 301.679688 127.675781 Z M 118.527344 273.96875 L 92.441406 282.480469 C 89.566406 283.417969 86.460938 281.84375 85.523438 278.96875 C 84.585938 276.09375 86.164062 272.992188 89.039062 272.054688 L 115.125 263.542969 Z M 338.425781 81.070312 L 332.3125 83.066406 C 328.175781 77.699219 320.957031 75.234375 314.15625 77.453125 L 308.9375 79.15625 L 307.238281 73.941406 C 306.296875 71.0625 303.199219 69.488281 300.320312 70.429688 L 269.019531 80.644531 L 253.707031 33.71875 C 252.765625 30.839844 249.667969 29.265625 246.789062 30.207031 L 142.453125 64.25 C 139.570312 65.191406 137.996094 68.289062 138.9375 71.167969 L 154.246094 118.089844 L 122.945312 128.304688 C 120.066406 129.246094 118.492188 132.339844 119.429688 135.21875 L 121.132812 140.433594 L 115.914062 142.136719 C 109.113281 144.355469 104.738281 150.605469 104.566406 157.378906 L 98.449219 159.375 C 89.820312 162.1875 85.089844 171.496094 87.90625 180.121094 L 111.722656 253.113281 L 85.636719 261.625 C 77.007812 264.441406 72.277344 273.75 75.089844 282.375 C 77.90625 291 87.214844 295.726562 95.84375 292.910156 L 127.144531 282.695312 C 130.027344 281.753906 131.601562 278.660156 130.660156 275.78125 L 98.339844 176.71875 C 97.398438 173.84375 98.976562 170.738281 101.855469 169.800781 L 107.070312 168.097656 L 151.300781 303.660156 L 146.085938 305.359375 C 137.457031 308.175781 132.722656 317.484375 135.539062 326.109375 L 138.941406 336.535156 C 139.882812 339.414062 142.976562 340.988281 145.859375 340.046875 L 406.699219 254.9375 C 409.582031 253.996094 411.15625 250.902344 410.214844 248.023438 L 406.8125 237.59375 C 404 228.96875 394.6875 224.242188 386.058594 227.058594 L 380.84375 228.761719 L 350.21875 134.914062 L 355.4375 133.210938 C 364.066406 130.394531 368.796875 121.085938 365.984375 112.460938 L 359.179688 91.605469 C 356.363281 82.980469 347.054688 78.253906 338.425781 81.070312 " fill-opacity="1" fill-rule="nonzero"/></g></g></g></g></svg>